<svg width="33" height="32" viewBox="0 0 33 32" fill="none" xmlns="http://www.w3.org/2000/svg">
<mask id="mask0_58141_199" style="mask-type:alpha" maskUnits="userSpaceOnUse" x="0" y="0" width="33" height="32">
<rect x="0.5" width="32" height="32" fill="#D9D9D9"/>
</mask>
<g mask="url(#mask0_58141_199)">
<path d="M25.8291 18.6667C25.5132 18.6667 25.2497 18.5602 25.0386 18.3473C24.8275 18.1343 24.7219 17.8704 24.7219 17.5556V14.4445H21.6108C21.296 14.4445 21.0321 14.3376 20.8191 14.1239C20.6062 13.9102 20.4997 13.6454 20.4997 13.3295C20.4997 13.0136 20.6062 12.7501 20.8191 12.5389C21.0321 12.3278 21.296 12.2223 21.6108 12.2223H24.7219V9.11115C24.7219 8.79635 24.8288 8.53246 25.0425 8.31948C25.2562 8.10653 25.521 8.00005 25.8369 8.00005C26.1528 8.00005 26.4163 8.10653 26.6274 8.31948C26.8386 8.53246 26.9441 8.79635 26.9441 9.11115V12.2223H30.0552C30.37 12.2223 30.6339 12.3291 30.8469 12.5428C31.0599 12.7566 31.1663 13.0214 31.1663 13.3373C31.1663 13.6532 31.0599 13.9167 30.8469 14.1278C30.6339 14.3389 30.37 14.4445 30.0552 14.4445H26.9441V17.5556C26.9441 17.8704 26.8373 18.1343 26.6235 18.3473C26.4098 18.5602 26.145 18.6667 25.8291 18.6667ZM12.4997 15.9778C11.033 15.9778 9.81449 15.4926 8.84411 14.5223C7.87375 13.5519 7.38858 12.3334 7.38858 10.8667C7.38858 9.40005 7.87375 8.18154 8.84411 7.21118C9.81449 6.2408 11.033 5.75562 12.4997 5.75562C13.9663 5.75562 15.1849 6.2408 16.1552 7.21118C17.1256 8.18154 17.6108 9.40005 17.6108 10.8667C17.6108 12.3334 17.1256 13.5519 16.1552 14.5223C15.1849 15.4926 13.9663 15.9778 12.4997 15.9778ZM2.94411 26.6667C2.62931 26.6667 2.36542 26.5602 2.15244 26.3473C1.93949 26.1343 1.83301 25.8704 1.83301 25.5556V23.3334C1.83301 22.563 2.03115 21.8612 2.42744 21.2279C2.82375 20.5945 3.36635 20.1186 4.05524 19.8C5.62562 19.0815 7.07998 18.5649 8.41831 18.25C9.75666 17.9352 11.1159 17.7779 12.4961 17.7779C13.8763 17.7779 15.2367 17.9352 16.5774 18.25C17.9182 18.5649 19.3663 19.0815 20.9219 19.8C21.6108 20.1334 22.1571 20.613 22.5608 21.2389C22.9645 21.8649 23.1663 22.563 23.1663 23.3334V25.5556C23.1663 25.8704 23.0599 26.1343 22.8469 26.3473C22.6339 26.5602 22.37 26.6667 22.0552 26.6667H2.94411ZM4.05521 24.4445H20.9441V23.3334C20.9441 23.0149 20.8645 22.7149 20.7052 22.4334C20.546 22.1519 20.3071 21.9408 19.9886 21.8C18.5515 21.0963 17.2626 20.6204 16.1219 20.3723C14.9812 20.1241 13.7737 20 12.4997 20C11.2256 20 10.0182 20.1278 8.87744 20.3834C7.73671 20.6389 6.44042 21.1112 4.98857 21.8C4.69966 21.9408 4.47187 22.1519 4.30521 22.4334C4.13854 22.7149 4.05521 23.0149 4.05521 23.3334V24.4445ZM12.4997 13.7556C13.3219 13.7556 14.0089 13.4797 14.5608 12.9278C15.1126 12.376 15.3886 11.6889 15.3886 10.8667C15.3886 10.0445 15.1126 9.35746 14.5608 8.80562C14.0089 8.25375 13.3219 7.97782 12.4997 7.97782C11.6775 7.97782 10.9904 8.25375 10.4386 8.80562C9.88671 9.35746 9.61077 10.0445 9.61077 10.8667C9.61077 11.6889 9.88671 12.376 10.4386 12.9278C10.9904 13.4797 11.6775 13.7556 12.4997 13.7556Z" fill="white"/>
</g>
</svg>
