<svg width="32" height="32" viewBox="0 0 32 32" fill="none" xmlns="http://www.w3.org/2000/svg">
<mask id="mask0_19027_6580" style="mask-type:alpha" maskUnits="userSpaceOnUse" x="4" y="4" width="24" height="24">
<rect x="4" y="4" width="24" height="24" fill="#D9D9D9"/>
</mask>
<g mask="url(#mask0_19027_6580)">
<path d="M16.0001 17.8645L9.46673 24.3892C9.22229 24.6333 8.91118 24.7554 8.5334 24.7554C8.15562 24.7554 7.84451 24.6333 7.60007 24.3892C7.35562 24.1451 7.2334 23.8344 7.2334 23.4571C7.2334 23.0798 7.35562 22.7691 7.60007 22.525L14.1334 16.0003L7.60007 9.47552C7.35562 9.23139 7.2334 8.92069 7.2334 8.54341C7.2334 8.16613 7.35562 7.85543 7.60007 7.6113C7.84451 7.36718 8.15562 7.24512 8.5334 7.24512C8.91118 7.24512 9.22229 7.36718 9.46673 7.6113L16.0001 14.136L22.5334 7.6113C22.7778 7.36718 23.089 7.24512 23.4667 7.24512C23.8445 7.24512 24.1556 7.36718 24.4001 7.6113C24.6445 7.85543 24.7667 8.16613 24.7667 8.54341C24.7667 8.92069 24.6445 9.23139 24.4001 9.47552L17.8667 16.0003L24.4001 22.525C24.6445 22.7691 24.7667 23.0798 24.7667 23.4571C24.7667 23.8344 24.6445 24.1451 24.4001 24.3892C24.1556 24.6333 23.8445 24.7554 23.4667 24.7554C23.089 24.7554 22.7778 24.6333 22.5334 24.3892L16.0001 17.8645Z" fill="white"/>
</g>
</svg>
