<svg width="25" height="24" viewBox="0 0 25 24" fill="none" xmlns="http://www.w3.org/2000/svg">
<mask id="mask0_19053_6755" style="mask-type:alpha" maskUnits="userSpaceOnUse" x="0" y="0" width="25" height="24">
<rect x="0.498047" width="24" height="24" fill="#D9D9D9"/>
</mask>
<g mask="url(#mask0_19053_6755)">
<path d="M7.49805 21C6.94805 21 6.47721 20.8042 6.08555 20.4125C5.69388 20.0208 5.49805 19.55 5.49805 19V6C5.21471 6 4.97721 5.90417 4.78555 5.7125C4.59388 5.52083 4.49805 5.28333 4.49805 5C4.49805 4.71667 4.59388 4.47917 4.78555 4.2875C4.97721 4.09583 5.21471 4 5.49805 4H9.49805C9.49805 3.71667 9.59388 3.47917 9.78555 3.2875C9.97721 3.09583 10.2147 3 10.498 3H14.498C14.7814 3 15.0189 3.09583 15.2105 3.2875C15.4022 3.47917 15.498 3.71667 15.498 4H19.498C19.7814 4 20.0189 4.09583 20.2105 4.2875C20.4022 4.47917 20.498 4.71667 20.498 5C20.498 5.28333 20.4022 5.52083 20.2105 5.7125C20.0189 5.90417 19.7814 6 19.498 6V19C19.498 19.55 19.3022 20.0208 18.9105 20.4125C18.5189 20.8042 18.048 21 17.498 21H7.49805ZM7.49805 6V19H17.498V6H7.49805ZM9.49805 16C9.49805 16.2833 9.59388 16.5208 9.78555 16.7125C9.97721 16.9042 10.2147 17 10.498 17C10.7814 17 11.0189 16.9042 11.2105 16.7125C11.4022 16.5208 11.498 16.2833 11.498 16V9C11.498 8.71667 11.4022 8.47917 11.2105 8.2875C11.0189 8.09583 10.7814 8 10.498 8C10.2147 8 9.97721 8.09583 9.78555 8.2875C9.59388 8.47917 9.49805 8.71667 9.49805 9V16ZM13.498 16C13.498 16.2833 13.5939 16.5208 13.7855 16.7125C13.9772 16.9042 14.2147 17 14.498 17C14.7814 17 15.0189 16.9042 15.2105 16.7125C15.4022 16.5208 15.498 16.2833 15.498 16V9C15.498 8.71667 15.4022 8.47917 15.2105 8.2875C15.0189 8.09583 14.7814 8 14.498 8C14.2147 8 13.9772 8.09583 13.7855 8.2875C13.5939 8.47917 13.498 8.71667 13.498 9V16Z" fill="#005DFF"/>
</g>
</svg>
