<svg width="24" height="24" viewBox="0 0 24 24" fill="none" xmlns="http://www.w3.org/2000/svg">
<mask id="mask0_20074_18626" style="mask-type:alpha" maskUnits="userSpaceOnUse" x="-1" y="0" width="25" height="24">
<rect x="-0.000976562" width="24" height="24" fill="#D9D9D9"/>
</mask>
<g mask="url(#mask0_20074_18626)">
<path d="M12.6986 10.3001L15.2986 12.9001C15.6152 13.2168 15.6861 13.5793 15.5111 13.9876C15.3361 14.3959 15.0236 14.6001 14.5736 14.6001H9.42356C8.97356 14.6001 8.66106 14.3959 8.48606 13.9876C8.31106 13.5793 8.38189 13.2168 8.69856 12.9001L11.2986 10.3001C11.3986 10.2001 11.5069 10.1251 11.6236 10.0751C11.7402 10.0251 11.8652 10.0001 11.9986 10.0001C12.1319 10.0001 12.2569 10.0251 12.3736 10.0751C12.4902 10.1251 12.5986 10.2001 12.6986 10.3001Z" fill="#4589FF"/>
</g>
</svg>
