<svg width="24" height="24" viewBox="0 0 24 24" fill="none" xmlns="http://www.w3.org/2000/svg">
<mask id="mask0_19053_6744" style="mask-type:alpha" maskUnits="userSpaceOnUse" x="-1" y="0" width="25" height="24">
<rect x="-0.00195312" width="24" height="24" fill="#D9D9D9"/>
</mask>
<g mask="url(#mask0_19053_6744)">
<path d="M4.99805 19H6.39805L15.023 10.375L13.623 8.975L4.99805 17.6V19ZM19.298 8.925L15.048 4.725L16.448 3.325C16.8314 2.94167 17.3022 2.75 17.8605 2.75C18.4189 2.75 18.8897 2.94167 19.273 3.325L20.673 4.725C21.0564 5.10833 21.2564 5.57083 21.273 6.1125C21.2897 6.65417 21.1064 7.11667 20.723 7.5L19.298 8.925ZM17.848 10.4L7.24805 21H2.99805V16.75L13.598 6.15L17.848 10.4Z" fill="#005DFF"/>
</g>
</svg>
