<svg width="25" height="24" viewBox="0 0 25 24" fill="none" xmlns="http://www.w3.org/2000/svg">
<mask id="mask0_58171_1566" style="mask-type:alpha" maskUnits="userSpaceOnUse" x="0" y="0" width="25" height="24">
<rect x="0.154297" width="24" height="24" fill="#D9D9D9"/>
</mask>
<g mask="url(#mask0_58171_1566)">
<path d="M2.49583 24.0149C1.85191 24.0149 1.30067 23.7856 0.842123 23.327C0.383572 22.8685 0.154297 22.3173 0.154297 21.6733V5.28259C0.154297 4.63866 0.383572 4.08743 0.842123 3.62888C1.30067 3.17033 1.85191 2.94105 2.49583 2.94105H12.9449L10.6034 5.28259H2.49583V21.6733H18.8866V13.5365L21.2281 11.195V21.6733C21.2281 22.3173 20.9988 22.8685 20.5403 23.327C20.0817 23.7856 19.5305 24.0149 18.8866 24.0149H2.49583ZM15.5792 3.61424L17.2475 5.25332L9.52044 12.9804V14.6487H11.1595L18.9158 6.89239L20.5842 8.53147L12.8279 16.2878C12.6132 16.5024 12.3644 16.6732 12.0815 16.8C11.7986 16.9268 11.501 16.9903 11.1888 16.9903H8.34967C8.01795 16.9903 7.73989 16.8781 7.5155 16.6537C7.2911 16.4293 7.1789 16.1512 7.1789 15.8195V12.9804C7.1789 12.6682 7.23744 12.3706 7.35452 12.0877C7.47159 11.8047 7.63745 11.5559 7.85209 11.3413L15.5792 3.61424ZM20.5842 8.53147L15.5792 3.61424L18.5061 0.687324C18.9744 0.219017 19.5354 -0.0151367 20.1891 -0.0151367C20.8427 -0.0151367 21.394 0.219017 21.8428 0.687324L23.4818 2.35567C23.9306 2.80446 24.155 3.35082 24.155 3.99474C24.155 4.63866 23.9306 5.18502 23.4818 5.63382L20.5842 8.53147Z" fill="#4589FF"/>
</g>
</svg>
