<svg width="24" height="24" viewBox="0 0 24 24" fill="none" xmlns="http://www.w3.org/2000/svg">
<mask id="mask0_57683_5710" style="mask-type:alpha" maskUnits="userSpaceOnUse" x="0" y="0" width="24" height="24">
<rect width="24" height="24" fill="#D9D9D9"/>
</mask>
<g mask="url(#mask0_57683_5710)">
<path d="M2.34129 24.0149C1.69737 24.0149 1.14613 23.7856 0.687582 23.327C0.229031 22.8685 -0.000244141 22.3173 -0.000244141 21.6733V5.28259C-0.000244141 4.63866 0.229031 4.08743 0.687582 3.62888C1.14613 3.17033 1.69737 2.94105 2.34129 2.94105H12.7904L10.4489 5.28259H2.34129V21.6733H18.732V13.5365L21.0736 11.195V21.6733C21.0736 22.3173 20.8443 22.8685 20.3857 23.327C19.9272 23.7856 19.376 24.0149 18.732 24.0149H2.34129ZM15.4246 3.61424L17.093 5.25332L9.36589 12.9804V14.6487H11.005L18.7613 6.89239L20.4296 8.53147L12.6733 16.2878C12.4587 16.5024 12.2099 16.6732 11.9269 16.8C11.644 16.9268 11.3464 16.9903 11.0342 16.9903H8.19513C7.86341 16.9903 7.58535 16.8781 7.36096 16.6537C7.13656 16.4293 7.02436 16.1512 7.02436 15.8195V12.9804C7.02436 12.6682 7.0829 12.3706 7.19998 12.0877C7.31705 11.8047 7.48291 11.5559 7.69755 11.3413L15.4246 3.61424ZM20.4296 8.53147L15.4246 3.61424L18.3515 0.687324C18.8198 0.219017 19.3808 -0.0151367 20.0345 -0.0151367C20.6882 -0.0151367 21.2394 0.219017 21.6882 0.687324L23.3273 2.35567C23.7761 2.80446 24.0005 3.35082 24.0005 3.99474C24.0005 4.63866 23.7761 5.18502 23.3273 5.63382L20.4296 8.53147Z" fill="#42526E"/>
</g>
</svg>
