<svg width="64" height="64" viewBox="0 0 64 64" fill="none" xmlns="http://www.w3.org/2000/svg">
<mask id="mask0_19013_6208" style="mask-type:alpha" maskUnits="userSpaceOnUse" x="0" y="0" width="64" height="64">
<rect width="64" height="64" fill="#D9D9D9"/>
</mask>
<g mask="url(#mask0_19013_6208)">
<path d="M32.0003 32.0003C29.067 32.0003 26.5559 30.9559 24.467 28.867C22.3781 26.7781 21.3337 24.267 21.3337 21.3337C21.3337 18.4003 22.3781 15.8892 24.467 13.8003C26.5559 11.7114 29.067 10.667 32.0003 10.667C34.9337 10.667 37.4448 11.7114 39.5337 13.8003C41.6225 15.8892 42.667 18.4003 42.667 21.3337C42.667 24.267 41.6225 26.7781 39.5337 28.867C37.4448 30.9559 34.9337 32.0003 32.0003 32.0003ZM48.0003 53.3337H16.0003C14.5337 53.3337 13.2781 52.8114 12.2337 51.767C11.1892 50.7225 10.667 49.467 10.667 48.0003V45.867C10.667 44.3559 11.0559 42.967 11.8337 41.7003C12.6114 40.4337 13.6448 39.467 14.9337 38.8003C17.6892 37.4225 20.4892 36.3892 23.3337 35.7003C26.1781 35.0114 29.067 34.667 32.0003 34.667C34.9337 34.667 37.8225 35.0114 40.667 35.7003C43.5114 36.3892 46.3114 37.4225 49.067 38.8003C50.3559 39.467 51.3892 40.4337 52.167 41.7003C52.9448 42.967 53.3337 44.3559 53.3337 45.867V48.0003C53.3337 49.467 52.8114 50.7225 51.767 51.767C50.7225 52.8114 49.467 53.3337 48.0003 53.3337ZM16.0003 48.0003H48.0003V45.867C48.0003 45.3781 47.8781 44.9337 47.6337 44.5337C47.3892 44.1337 47.067 43.8225 46.667 43.6003C44.267 42.4003 41.8448 41.5003 39.4003 40.9003C36.9559 40.3003 34.4892 40.0003 32.0003 40.0003C29.5114 40.0003 27.0448 40.3003 24.6003 40.9003C22.1559 41.5003 19.7337 42.4003 17.3337 43.6003C16.9337 43.8225 16.6114 44.1337 16.367 44.5337C16.1225 44.9337 16.0003 45.3781 16.0003 45.867V48.0003ZM32.0003 26.667C33.467 26.667 34.7225 26.1448 35.767 25.1003C36.8114 24.0559 37.3337 22.8003 37.3337 21.3337C37.3337 19.867 36.8114 18.6114 35.767 17.567C34.7225 16.5225 33.467 16.0003 32.0003 16.0003C30.5337 16.0003 29.2781 16.5225 28.2337 17.567C27.1892 18.6114 26.667 19.867 26.667 21.3337C26.667 22.8003 27.1892 24.0559 28.2337 25.1003C29.2781 26.1448 30.5337 26.667 32.0003 26.667Z" fill="white"/>
</g>
</svg>
